<svg xmlns="http://www.w3.org/2000/svg" xmlns:xlink="http://www.w3.org/1999/xlink" width="500" zoomAndPan="magnify" viewBox="0 0 375 374.999991" height="500" preserveAspectRatio="xMidYMid meet" version="1.0"><defs><g/></defs><g fill="#2b2b2b" fill-opacity="1"><g transform="translate(174.905105, 292.934352)"><g><path d="M 96.640625 -124.4375 L 59.921875 -124.4375 L 59.921875 0 L 42.375 0 L 42.375 -124.4375 L 5.75 -124.4375 L 5.75 -139.59375 L 96.640625 -139.59375 Z M 96.640625 -124.4375 "/></g></g></g><g fill="#2b2b2b" fill-opacity="1"><g transform="translate(101.999998, 238.873926)"><g><path d="M 51.390625 -69.5 L 79.953125 -139.59375 L 99.796875 -139.59375 L 60.109375 -52.0625 L 60.109375 0 L 42.5625 0 L 42.5625 -52.0625 L 2.875 -139.59375 L 22.8125 -139.59375 Z M 51.390625 -69.5 "/></g></g></g><path fill="#f4f4f4" d="M 121.605469 197.757812 L 253.269531 197.757812 L 253.269531 229.863281 L 121.605469 229.863281 L 121.605469 197.757812 " fill-opacity="1" fill-rule="nonzero"/><g fill="#2b2b2b" fill-opacity="1"><g transform="translate(131.341527, 220.560382)"><g><path d="M 5.296875 -7.171875 L 8.25 -14.390625 L 10.296875 -14.390625 L 6.203125 -5.375 L 6.203125 0 L 4.390625 0 L 4.390625 -5.375 L 0.296875 -14.390625 L 2.359375 -14.390625 Z M 5.296875 -7.171875 "/></g></g></g><g fill="#2b2b2b" fill-opacity="1"><g transform="translate(145.141244, 220.560382)"><g><path d="M 8.265625 -3.75 L 3.40625 -3.75 L 2.28125 0 L 0.421875 0 L 5.0625 -14.390625 L 6.609375 -14.390625 L 11.265625 0 L 9.40625 0 Z M 3.875 -5.3125 L 7.796875 -5.3125 L 5.828125 -11.859375 Z M 3.875 -5.3125 "/></g></g></g><g fill="#2b2b2b" fill-opacity="1"><g transform="translate(159.989057, 220.560382)"><g><path d="M 10.578125 -4.5625 C 10.503906 -3.019531 10.070312 -1.835938 9.28125 -1.015625 C 8.488281 -0.203125 7.375 0.203125 5.9375 0.203125 C 4.5 0.203125 3.351562 -0.34375 2.5 -1.4375 C 1.644531 -2.539062 1.21875 -4.03125 1.21875 -5.90625 L 1.21875 -8.515625 C 1.21875 -10.390625 1.65625 -11.867188 2.53125 -12.953125 C 3.40625 -14.046875 4.597656 -14.59375 6.109375 -14.59375 C 7.503906 -14.59375 8.582031 -14.175781 9.34375 -13.34375 C 10.101562 -12.507812 10.515625 -11.316406 10.578125 -9.765625 L 8.75 -9.765625 C 8.664062 -10.941406 8.414062 -11.78125 8 -12.28125 C 7.59375 -12.78125 6.960938 -13.03125 6.109375 -13.03125 C 5.128906 -13.03125 4.375 -12.644531 3.84375 -11.875 C 3.320312 -11.113281 3.0625 -9.988281 3.0625 -8.5 L 3.0625 -5.859375 C 3.0625 -4.398438 3.304688 -3.28125 3.796875 -2.5 C 4.285156 -1.726562 5 -1.34375 5.9375 -1.34375 C 6.882812 -1.34375 7.566406 -1.578125 7.984375 -2.046875 C 8.398438 -2.515625 8.65625 -3.351562 8.75 -4.5625 Z M 10.578125 -4.5625 "/></g></g></g><g fill="#2b2b2b" fill-opacity="1"><g transform="translate(174.649003, 220.560382)"><g><path d="M 9.96875 -12.828125 L 6.1875 -12.828125 L 6.1875 0 L 4.375 0 L 4.375 -12.828125 L 0.59375 -12.828125 L 0.59375 -14.390625 L 9.96875 -14.390625 Z M 9.96875 -12.828125 "/></g></g></g><g fill="#2b2b2b" fill-opacity="1"><g transform="translate(188.369619, 220.560382)"><g><path d="M 10.921875 -5.9375 C 10.921875 -3.96875 10.5 -2.453125 9.65625 -1.390625 C 8.820312 -0.328125 7.632812 0.203125 6.09375 0.203125 C 4.601562 0.203125 3.425781 -0.3125 2.5625 -1.34375 C 1.707031 -2.375 1.265625 -3.832031 1.234375 -5.71875 L 1.234375 -8.4375 C 1.234375 -10.363281 1.65625 -11.867188 2.5 -12.953125 C 3.351562 -14.046875 4.546875 -14.59375 6.078125 -14.59375 C 7.585938 -14.59375 8.765625 -14.066406 9.609375 -13.015625 C 10.460938 -11.972656 10.898438 -10.484375 10.921875 -8.546875 Z M 9.109375 -8.453125 C 9.109375 -9.972656 8.859375 -11.101562 8.359375 -11.84375 C 7.859375 -12.59375 7.097656 -12.96875 6.078125 -12.96875 C 5.078125 -12.96875 4.320312 -12.585938 3.8125 -11.828125 C 3.300781 -11.078125 3.039062 -9.972656 3.03125 -8.515625 L 3.03125 -5.9375 C 3.03125 -4.46875 3.285156 -3.34375 3.796875 -2.5625 C 4.304688 -1.789062 5.066406 -1.40625 6.078125 -1.40625 C 7.097656 -1.40625 7.851562 -1.757812 8.34375 -2.46875 C 8.832031 -3.1875 9.085938 -4.28125 9.109375 -5.75 Z M 9.109375 -8.453125 "/></g></g></g><g fill="#2b2b2b" fill-opacity="1"><g transform="translate(203.711819, 220.560382)"><g><path d="M 10.140625 -14.390625 L 10.140625 -4.15625 C 10.117188 -2.789062 9.71875 -1.722656 8.9375 -0.953125 C 8.164062 -0.179688 7.085938 0.203125 5.703125 0.203125 C 4.273438 0.203125 3.1875 -0.171875 2.4375 -0.921875 C 1.6875 -1.679688 1.300781 -2.757812 1.28125 -4.15625 L 1.28125 -14.390625 L 3.078125 -14.390625 L 3.078125 -4.234375 C 3.078125 -3.265625 3.285156 -2.539062 3.703125 -2.0625 C 4.117188 -1.582031 4.785156 -1.34375 5.703125 -1.34375 C 6.617188 -1.34375 7.28125 -1.582031 7.6875 -2.0625 C 8.101562 -2.539062 8.3125 -3.265625 8.3125 -4.234375 L 8.3125 -14.390625 Z M 10.140625 -14.390625 "/></g></g></g><g fill="#2b2b2b" fill-opacity="1"><g transform="translate(218.263004, 220.560382)"><g><path d="M 8.265625 -3.75 L 3.40625 -3.75 L 2.28125 0 L 0.421875 0 L 5.0625 -14.390625 L 6.609375 -14.390625 L 11.265625 0 L 9.40625 0 Z M 3.875 -5.3125 L 7.796875 -5.3125 L 5.828125 -11.859375 Z M 3.875 -5.3125 "/></g></g></g><g fill="#2b2b2b" fill-opacity="1"><g transform="translate(233.110819, 220.560382)"><g><path d="M 9.96875 -12.828125 L 6.1875 -12.828125 L 6.1875 0 L 4.375 0 L 4.375 -12.828125 L 0.59375 -12.828125 L 0.59375 -14.390625 L 9.96875 -14.390625 Z M 9.96875 -12.828125 "/></g></g></g></svg>